# xmcd CD database file
#
# Track frame offsets:
#	150
#	10570
#	25092
#	39110
#	55752
#	72967
#	86010
#	102777
#	132600
#	151302
#	167090
#	180212
#	205457
#
# Disc length: 2983 seconds
#
# Revision: 15
# Processed by: cddbd v1.4PL0 Copyright (c) Steve Scherf et al.
# Submitted via: CDex 1.50beta10
#
DISCID=9a0ba50d
DTITLE=The Brian Setzer Orchestra - The Dirty Boogie
DYEAR=1998
DGENRE=Swing
TTITLE0=This Cat's On A Hot Tin Roof
TTITLE1=The Dirty Boogie
TTITLE2=This Old House
TTITLE3=Let's Live It Up
TTITLE4=Sleepwalk
TTITLE5=Jump Jive an' Wail
TTITLE6=You're the Boss
TTITLE7=Rock This Town
TTITLE8=Since I Don't Have You
TTITLE9=Switchblade 327
TTITLE10=Nosey Joe
TTITLE11=Hollywood Nocturne
TTITLE12=As Long As I'm Singing
EXTD=Compilation 1976-1986 YEAR: 1998
EXTT0=
EXTT1=
EXTT2=
EXTT3=
EXTT4=
EXTT5=
EXTT6=
EXTT7=
EXTT8=
EXTT9=
EXTT10=
EXTT11=
EXTT12=
PLAYORDER=
